Coordinates
version=1
nRows=14
nColumns=36
inDegrees=yes

Units are S.I. units (second, meters, Newtons, ...)
If the header above contains a line with 'inDegrees', this indicates whether rotational values are in degrees (yes) or radians (no).

endheader
time	pelvis_tilt	pelvis_list	pelvis_rotation	pelvis_tx	pelvis_ty	pelvis_tz	hip_flexion_r	hip_adduction_r	hip_rotation_r	knee_angle_r	knee_angle_r_beta	ankle_angle_r	subtalar_angle_r	mtp_angle_r	hip_flexion_l	hip_adduction_l	hip_rotation_l	knee_angle_l	knee_angle_l_beta	ankle_angle_l	subtalar_angle_l	mtp_angle_l	lumbar_extension	lumbar_bending	lumbar_rotation	arm_flex_r	arm_add_r	arm_rot_r	elbow_flex_r	pro_sup_r	arm_flex_l	arm_add_l	arm_rot_l	elbow_flex_l	pro_sup_l
      3.37500000	    -20.89041742	      0.52003720	      3.82688637	     -1.08361095	      1.05565468	     -0.06680445	     67.39407867	      1.64625985	      4.63468907	     83.29958711	      1.45385206	     31.19866512	    -22.06473078	     -7.49999987	     68.47676859	     -1.86598410	     -0.57222674	     85.05788502	      1.48454015	     31.11139749	     -7.88276530	     -7.49999987	    -59.16252767	      0.73623661	      1.22165853	     -3.94703019	    -13.78739356	     36.13861265	      7.23836039	     38.84886372	     -5.88075330	    -12.63264413	    -27.89977096	     12.82223140	     53.91186209
      3.37916670	    -20.67872179	      0.45573786	      3.78391083	     -1.08418449	      1.05609208	     -0.06776512	     67.19515841	      1.68442655	      4.73693497	     83.33846796	      1.45453066	     30.88884777	    -22.52453793	     -7.49999987	     68.15870414	     -1.72526820	     -0.47238806	     85.02228198	      1.48391876	     31.28156793	     -8.15101984	     -7.49999987	    -59.80952912	      0.84320637	      1.36162226	     -2.54532618	    -13.99219995	     35.32181463	      6.96736495	     40.53511870	     -4.69903678	    -12.38868782	    -27.71537790	     13.33278609	     54.52217822
      3.38333330	    -20.27233721	      0.48234562	      3.62566366	     -1.07296122	      1.05341063	     -0.06599644	     66.65667046	      1.98907849	      4.83187701	     83.72016125	      1.46119246	     31.26529783	    -22.52190383	     -7.49999987	     67.26316767	     -1.84950032	     -0.30017204	     85.05304671	      1.48445570	     31.68553056	     -8.35387966	     -7.49999987	    -60.18505847	      0.75960212	      1.47291079	     -1.61169543	    -14.02472651	     35.19597329	      7.01232607	     40.43197969	     -3.66937021	    -12.25928084	    -27.47405243	     13.30858303	     54.54642533
      3.38750000	    -19.58740338	      0.55773054	      3.50932440	     -1.07073664	      1.05550668	     -0.06622767	     65.56257567	      2.18319953	      4.78954311	     83.72552747	      1.46128612	     31.51594061	    -22.40957735	     -7.49999987	     66.04119959	     -1.88491665	     -0.25049221	     85.00941846	      1.48369425	     31.83872906	     -8.25487677	     -7.49999987	    -61.20043211	      0.72220172	      1.93246703	     -0.58336424	    -13.95690539	     32.11234999	      6.92381303	     39.53969305	     -1.93425032	    -12.54273159	    -22.35061620	     12.17630094	     54.50444330
      3.39166670	    -19.04105620	      0.61541048	      3.30240198	     -1.07227147	      1.05734673	     -0.06740450	     64.86526552	      2.34436520	      4.94792841	     83.73500844	      1.46145160	     31.43365733	    -22.45941484	     -7.49999987	     65.13928908	     -1.81324591	     -0.19460544	     84.85605468	      1.48101754	     32.14389714	     -8.27994860	     -7.49999987	    -62.07436264	      0.55229555	      1.97475834	      1.00688692	    -14.10048979	     31.60257633	      6.45224693	     40.61588760	     -0.73300032	    -12.39729261	    -22.26146606	     12.80151261	     54.67553368
      3.39583330	    -18.86071785	      0.73859440	      3.00603098	     -1.07465900	      1.06170054	     -0.06859114	     64.50836395	      2.41729249	      5.16131099	     83.37072583	      1.45509367	     31.19666944	    -22.48980276	     -7.49999987	     64.73992142	     -1.65395384	     -0.25890620	     84.55301567	      1.47572852	     31.94884552	     -8.17428659	     -7.49999987	    -63.05148771	      0.33004729	      1.88837660	      2.97320099	    -14.46752270	     30.95606976	      6.38946894	     41.75608004	      0.76684073	    -12.15482406	    -21.94583460	     13.41025830	     54.88007337
      3.40000000	    -17.86832532	      0.74553380	      2.64142640	     -1.06601236	      1.05884475	     -0.07132649	     63.16671745	      2.54257407	      5.24590098	     83.41089194	      1.45579470	     31.57392251	    -22.49192711	     -7.49999987	     63.41732902	     -1.65233549	     -0.32553315	     84.63656098	      1.47718666	     32.18902177	     -8.27508669	     -7.49999987	    -64.57018325	      0.44323352	      2.47355212	      5.67427906	    -14.50372246	     29.89833989	      6.30828733	     42.09043521	      2.43128213	    -11.58249889	    -21.81509437	     13.72796374	     54.86447858
      3.40416670	    -17.25655278	      0.77195782	      2.41981801	     -1.06425033	      1.05856402	     -0.06705664	     62.24814144	      2.79195620	      5.35113937	     83.50482304	      1.45743410	     31.97146806	    -22.44020722	     -7.49999987	     62.63229710	     -1.84584588	     -0.28835206	     85.13283603	      1.48584829	     32.23356089	     -9.00988104	     -7.49999987	    -66.20202150	      0.33799211	      3.13462664	      8.65543347	    -14.57474927	     29.10503777	      6.61293022	     41.75511690	      4.35602291	    -11.41650614	    -21.26529462	     13.93071623	     54.79139916
      3.40833330	    -16.69691548	      0.76838568	      2.13198596	     -1.06012425	      1.05699815	     -0.07101175	     61.36225235	      2.96997886	      5.65654207	     83.75761686	      1.46184619	     32.69415761	    -21.92839585	     -7.49999987	     61.84391953	     -1.87533916	     -0.31390181	     85.54999348	      1.49312906	     32.97438130	     -8.60972330	     -7.49999987	    -67.35445260	      0.38806647	      4.33329136	     10.19917058	    -14.65078692	     14.16058701	      8.57939889	     45.77548984	      6.33622389	    -11.58095272	    -10.43948770	     13.13564191	     43.59334644
      3.41250000	    -16.75308354	      0.85785281	      2.08213256	     -1.05752759	      1.05272128	     -0.06703010	     61.29857401	      3.11088214	      5.87306327	     84.28061315	      1.47097420	     33.19427341	    -22.17738630	     -7.49999987	     61.78680200	     -1.94683467	     -0.35382343	     86.13409374	      1.50332353	     33.83035266	     -8.67157356	     -7.49999987	    -67.80501056	     -0.03649385	      4.47563263	     11.76908676	    -15.15320765	     13.30260810	      9.46393339	     45.55345335	      7.39853261	    -11.70817877	    -10.32729929	     13.96848145	     43.43064131
      3.41666670	    -17.14765390	      0.94139028	      2.00792789	     -1.05348814	      1.05059713	     -0.06500869	     61.74456022	      3.38816147	      6.05393323	     84.98445036	      1.48325847	     33.62046184	    -22.44826176	     -7.49999987	     62.06151213	     -2.17988151	     -0.43324235	     86.80070597	      1.51495811	     34.17847293	     -9.05986198	     -7.49999987	    -66.96111113	     -0.80918902	      3.80563272	     13.02726189	    -15.65151644	     12.57272894	      9.37577768	     47.03024916	      7.78455694	    -12.24753604	    -10.17800165	     13.95452280	     45.01619917
      3.42083330	    -17.68438029	      1.13344499	      2.03619967	     -1.05144137	      1.05118136	     -0.06539842	     62.18799121	      3.46941111	      6.29591649	     85.22338436	      1.48742866	     33.78988072	    -22.86951126	     -7.49999987	     62.52180102	     -2.03005101	     -0.58680831	     86.91191256	      1.51689903	     34.30373393	     -9.27110335	     -7.49999987	    -66.11013384	     -1.55267926	      3.00090866	     14.20572328	    -16.29335922	     11.97500245	      9.70749064	     48.37896339	      8.49665254	    -12.61395725	     -9.47496381	     14.03502125	     46.30792486
      3.42500000	    -17.56990468	      1.35663236	      1.88820560	     -1.04560056	      1.04920483	     -0.06869062	     61.85032717	      3.48552683	      6.53604497	     85.60565333	      1.49410051	     34.34665825	    -22.82953756	     -7.49999987	     62.06610172	     -1.79300764	     -0.85588781	     86.92817345	      1.51718284	     34.78942341	     -9.08658403	     -7.49999987	    -65.98288991	     -2.24459618	      2.36677251	     15.55965130	    -16.83856911	     11.99162413	     10.26868369	     48.83784667	      9.26450822	    -12.75121427	     -8.24471833	     14.16961762	     46.44612490
      3.42916670	    -17.81904142	      1.56866797	      1.77682489	     -1.04430748	      1.04560028	     -0.06835257	     61.98306248	      3.42956252	      6.89558310	     86.00036690	      1.50098956	     34.89628021	    -22.76794980	     -7.49999987	     62.14601508	     -1.55829357	     -1.09371177	     87.07182754	      1.51969008	     35.62249354	     -8.64646501	     -7.49999987	    -65.46114955	     -2.84032917	      1.83661613	     16.88710695	    -17.44755523	     11.33243222	     10.68273761	     50.14196315	      9.95613809	    -12.79735054	     -7.86599214	     14.50113987	     47.68868559
